<svg xmlns="http://www.w3.org/2000/svg" xmlns:xlink="http://www.w3.org/1999/xlink" width="36px" height="50px" viewBox="286.255 176.257 389.249 542.507" preserveAspectRatio="xMidYMid meet"  ><defs id="svgEditorDefs"><path id="svgEditorClosePathDefs" fill="green" style="stroke-width: 1px; stroke: none; fill-opacity: 0.27;"/><linearGradient gradientUnits="objectBoundingBox" id="lgrd2-fire" spreadMethod="pad" x1="0%" x2="100%" y1="0%" y2="0%"><stop offset="0%" style="stop-color:rgb(255,255,0);stop-opacity:1"/><stop offset="100%" style="stop-color:rgb(255,0,0);stop-opacity:1"/></linearGradient><linearGradient gradientUnits="objectBoundingBox" id="lgrd2-peachpuff-sienna-h" spreadMethod="pad" x1="0%" x2="100%" y1="0%" y2="0%"><stop offset="0%" style="stop-color:peachpuff;  stop-opacity:1;"/><stop offset="100%" style="stop-color:sienna;  stop-opacity:1"/></linearGradient><linearGradient gradientUnits="objectBoundingBox" id="lrgd2-e1-repeat" spreadMethod="repeat" x1="20%" x2="40%" y1="0%" y2="0%"><stop offset="0%" stop-color="lightblue"/><stop offset="100%" stop-color="#ef5b2b"/></linearGradient><radialGradient gradientUnits="objectBoundingBox" id="rgrd-wave" r="5%" spreadMethod="reflect"><stop offset="0%" stop-color="navy" stop-opacity="1.00"/><stop offset="20%" stop-color="navy" stop-opacity="0.90"/><stop offset="40%" stop-color="navy" stop-opacity="0.65"/><stop offset="60%" stop-color="navy" stop-opacity="0.35"/><stop offset="80%" stop-color="navy" stop-opacity="0.10"/><stop offset="100%" stop-color="navy" stop-opacity="0.00"/></radialGradient><linearGradient gradientTransform="rotate(90)" gradientUnits="objectBoundingBox" id="lgrd2-d-reflect" spreadMethod="reflect" x1="0%" x2="5%" y1="0%" y2="5%"><stop id="c1" offset="0%" stop-color="#e20709" stop-opacity="0.8"/><stop id="c2" offset="5%" stop-color="#9ad346" stop-opacity="1"/></linearGradient><linearGradient gradientUnits="objectBoundingBox" id="lrgd2-e1-50-reflect" spreadMethod="reflect" x1="0%" x2="50%" y1="0%" y2="0%"><stop offset="0%" stop-color="lightblue"/><stop offset="100%" stop-color="#ef5b2b"/></linearGradient><linearGradient gradientUnits="objectBoundingBox" id="lgrd2-black-white" spreadMethod="pad" x1="0%" x2="100%" y1="0%" y2="100%"><stop offset="0%" stop-color="black"/><stop offset="100%" stop-color="white"/></linearGradient><pattern height="10" id="hatch-blue-120" patternTransform="rotate(120) scale(0.4)" patternUnits="userSpaceOnUse" viewBox="0 0 10 10" width="10" x="0" y="0"><line style="stroke:blue;stroke-width:1px;" x1="0" x2="10" y1="5" y2="5"/></pattern><pattern height="10" id="hatch-blue-dash-120" patternTransform="rotate(120) scale(0.4)" patternUnits="userSpaceOnUse" viewBox="0 0 24 10" width="24" x="0" y="0"><line style="stroke:blue;stroke-width:1px;stroke-dasharray:4,4;" x1="0" x2="24" y1="5" y2="5"/></pattern><pattern height="10" id="hatch-blue-45" patternTransform="rotate(45) scale(0.4)" patternUnits="userSpaceOnUse" viewBox="0 0 10 10" width="10" x="0" y="0"><line style="stroke:blue;stroke-width:1px;" x1="0" x2="10" y1="5" y2="5"/></pattern><pattern height="10" id="hatch-red-45" patternTransform="rotate(45) scale(0.4)" patternUnits="userSpaceOnUse" viewBox="0 0 10 10" width="10" x="0" y="0"><line style="stroke:red;stroke-width:1px;" x1="0" x2="10" y1="5" y2="5"/></pattern><pattern height="10" id="cloud-gray-usr" patternUnits="userSpaceOnUse" viewBox="-20 -20 168 168" width="10" x="0" y="0"><path d="M40 112v16l16-24h-16v-16l-16 24z" style="fill:black;stroke:none;"/><path d="M128 60c0-15.464-12.536-28-28-28-0.076 0-0.15 0.005-0.226 0.005-1.987-18.002-17.243-32.005-35.774-32.005s-33.787 14.004-35.774 32.005c-0.076 0-0.15-0.005-0.226-0.005-15.464 0-28 12.536-28 28s12.536 28 28 28h72c15.464 0 28-12.536 28-28z" style="fill:gray;stroke:none;"/><path d="M72 112h16v16l16-24h-16v-16z" style="fill:black;stroke:none;"/></pattern><pattern height="20%" id="cloud-gray-obox" patternUnits="objectBoundingBox" viewBox="-20 -20 168 168" width="20%" x="0%" y="0%"><path d="M40 112v16l16-24h-16v-16l-16 24z" style="fill:black;stroke:none;"/><path d="M128 60c0-15.464-12.536-28-28-28-0.076 0-0.15 0.005-0.226 0.005-1.987-18.002-17.243-32.005-35.774-32.005s-33.787 14.004-35.774 32.005c-0.076 0-0.15-0.005-0.226-0.005-15.464 0-28 12.536-28 28s12.536 28 28 28h72c15.464 0 28-12.536 28-28z" style="fill:gray;stroke:none;"/><path d="M72 112h16v16l16-24h-16v-16z" style="fill:black;stroke:none;"/></pattern><pattern height="10" id="hatch-red-120" patternTransform="rotate(120) scale(0.4)" patternUnits="userSpaceOnUse" viewBox="0 0 10 10" width="10" x="0" y="0"><line style="stroke:red;stroke-width:1px;" x1="0" x2="10" y1="5" y2="5"/></pattern><pattern height="10" id="hatch-red-dash-45" patternTransform="rotate(45) scale(0.4)" patternUnits="userSpaceOnUse" viewBox="0 0 24 10" width="24" x="0" y="0"><line style="stroke:red;stroke-width:1px;stroke-dasharray:4,4;" x1="0" x2="24" y1="5" y2="5"/></pattern><pattern height="10" id="hatch-green-45" patternTransform="rotate(45) scale(0.4)" patternUnits="userSpaceOnUse" viewBox="0 0 10 10" width="10" x="0" y="0"><line style="stroke:green;stroke-width:1px;" x1="0" x2="10" y1="5" y2="5"/></pattern></defs><rect id="svgEditorBackground" x="0" y="0" width="1380" height="840" style="fill: none; stroke: none;"/><path d="M321.934082031,225.382247925c-77.506592705,61.556565553999974,-36.32210687353859,429.26759281806915,149.8629150389056,490.460465345035c200.95955398256626,-60.96505127082867,244.47360988109438,-423.622715493035,168.02813720709435,-487.05449000303497c-76.44547267399992,-63.431774511000015,-240.38445953999997,-64.962540897,-317.89105224599996,-3.405975342000005Z" id="e8373_area3" style="stroke-width: 10px; fill-opacity: 1; stroke: none;" fill="crimson"/><path d="M485,246c-71.28626493979999,-3.585803290499996,-127.81024100259998,49.7831464404,-132,103c53.45397294735238,-10.449033242940459,-32.83278289219999,90.44682448240002,125,119c-23.167217107700026,-44.44682448240002,82.10255824519527,-0.7640303079881505,112,-116c7.609977865599944,-75.7764953876,-89.71373506020001,-101.4141967095,-105,-106Z" id="e7677_area3" style="stroke: none; stroke-width: 1px; fill-opacity: 1; fill: rgb(76, 175, 80);"/><polyline stroke="black" stroke-width="1" id="e5825_polyline" style="fill: none;" points="309 214" /><ellipse id="e13008_ellipse" cx="478.846" cy="644.847" stroke="black" style="stroke-width: 4px; fill-opacity: 1; fill: rgb(255, 234, 0);" rx="61.1065" ry="13.0223" /><ellipse id="e12835_ellipse" cx="478.845" cy="629.928" stroke="black" style="stroke-width: 4px; fill-opacity: 1; fill: rgb(255, 234, 0);" rx="76.2789" ry="13.5705" /><ellipse id="e12689_ellipse" cx="478.1671142578125" cy="613.6532592773438" stroke="black" style="stroke-width: 4px; fill-opacity: 1; fill: rgb(255, 234, 0);" rx="91.54809373596407" ry="14.918948608823712"/><ellipse id="e12558_ellipse" cx="477.48898379229513" cy="596.6998925823784" stroke="black" style="stroke-width: 4px; fill-opacity: 1; fill: rgb(255, 234, 0);" rx="99.00756804037587" ry="16.953350691845117"/><ellipse id="e13309_ellipse" cx="478.8452453613281" cy="596.021484375" style="stroke-width: 1px; stroke: none; fill-opacity: 1;" rx="80.3971" ry="9.49387" fill="black"/><line id="e76_line" x1="281" y1="306" x2="281" y2="542" style="stroke-width: 10px; fill: none;" transform="matrix(1 0 0 1 196 55)" stroke="black"/><line id="e242_line" x1="281" y1="307" x2="355" y2="219" stroke="black" style="stroke-width: 10px; fill: none;" transform="matrix(1 0 0 1 196 55)"/><line id="e256_line" x1="281" y1="307" x2="218" y2="213" stroke="black" style="stroke-width: 10px; fill: none;" transform="matrix(1 0 0 1 196 55)"/><line id="e325_line" x1="280" y1="306" x2="163" y2="294" stroke="black" style="stroke-width: 10px; fill: none;" transform="matrix(1 0 0 1 196 55)"/><line id="e367_line" x1="284" y1="306" x2="384" y2="325" stroke="black" style="stroke-width: 10px; fill: none;" transform="matrix(1 0 0 1 196 55)"/><path d="M279,405a88.2587929771,88.2587929771,0,0,1,-102,-108" stroke="black" id="e411_circleArc" style="fill: none; stroke-width: 10px;" transform="matrix(1 0 0 1 196 55)"/><path d="M279.9311958339572,388.88454652580236a100.739138,100.739138,0,0,0,104.06880416604281,-133.88454652580236" stroke="black" id="e429_circleArc" style="fill: none; stroke-width: 10px;" transform="matrix(1 0 0 1 196 55)"/><path d="M159.39067013836893,295.67813402767365a120.778011,120.778011,0,0,1,225.32186597232612,-38.86239166791415" stroke="black" id="e458_circleArc" style="fill: none; stroke-width: 10px;" transform="matrix(1 0 0 1 196 55)"/><line id="e1738_line" x1="280" y1="306" x2="199" y2="379" style="stroke-width: 10px; fill: none;" transform="matrix(1 0 0 1 196 55)" stroke="black"/></svg>