<svg xmlns="http://www.w3.org/2000/svg" viewBox="0 0 320 160"><defs><style>.rectangle{fill:#ed1846;}.text{fill:#fff;}</style></defs><title>Riot Logo</title><rect class="rectangle" x="5" y="5" width="310" height="149.5256" rx="10" ry="10"/><path class="text" d="M113.8305,72.78v-.1573c0-5.67-1.7334-9.7643-5.0394-13.0721-3.8582-3.8582-10.0788-6.2993-19.8431-6.2993H62.018v55.1181H80.444V92.622h3.9369L94.7742,108.37H115.798L102.9636,89.6308C109.656,86.4016,113.8305,80.8109,113.8305,72.78ZM95.4836,74.1183c0,3.3864-2.6772,5.3539-7.0873,5.3539H80.444V68.6839h8.0326c4.2514,0,7.007,1.7334,7.007,5.2771Zm30.07,34.2511h18.4243V53.2512H125.5541ZM184.8388,52.07c-17.0071,0-30.1578,12.7558-30.1578,28.7407v.1573c0,15.9841,12.9933,28.5827,30.0005,28.5828,17.0089,0,30.1578-12.7559,30.1578-28.74v-.1573C214.8394,64.6684,201.8477,52.07,184.8388,52.07Zm11.4191,28.898c0,6.4575-4.41,12.2832-11.419,12.2827-7.0856,0-11.5746-5.9057-11.5746-12.44v-.1573c0-6.4565,4.41-12.284,11.4173-12.284,7.0873,0,11.5763,5.9061,11.5763,12.4413Zm23.8464-27.7167V68.8429h16.2208v39.5264h18.4242V68.8429H270.97V53.2512Z"/></svg>
