<svg xmlns="http://www.w3.org/2000/svg" xmlns:xlink="http://www.w3.org/1999/xlink" viewBox="168.684 86.0963 372.833 224" preserveAspectRatio="xMidYMid meet">
    <rect id="background" x="214" y="96" width="360" height="205" style="stroke: none; fill: none;" transform="matrix(1 0 0 1 -43.0425 0)" />
    <g id="links">
        <path d="M296.28002873493654,118.65121838999201q32.13047656526646,20.612003834321882,47.28636173756206,50.92377417891288"
            stroke="black" id="e6_arc2" style="fill: none; stroke-width: 2px;" />
        <path d="M295.0675579211529,113.80133513485745q46.073890923778436,0,47.892597144453816,-4.243647848242745" stroke="black"
            id="e7_arc2" style="fill: none; stroke-width: 2px;" />
        <path d="M296.28002873493665,115.01380594864108q36.98035982040096,8.487295696485504,46.07389092377832,15.155885172295513"
            stroke="black" id="e8_arc2" style="fill: none; stroke-width: 2px;" />
        <path d="M295.6737933280449,116.22627676242467q26.67435790323998,9.093531103377316,47.28636173756183,33.342947379050116"
            stroke="black" id="e9_arc2" style="fill: none; stroke-width: 2px;" />
        <path d="M295.67379332804467,165.33134472066214q27.886828717023832,26.068122496348252,47.28636173756206,33.94918278594193"
            stroke="black" id="e11_arc2" style="fill: none; stroke-width: 2px;" />
        <path d="M342.9601550656067,214.4364126788996q-38.79906604107646,-32.736711972158304,-48.49883255134557,-49.71130336512928"
            stroke="black" id="e12_arc2" style="fill: none; stroke-width: 2px;" />
        <path d="M296.28002873493654,168.96875716201313q30.91800575148295,46.680126330670134,46.68012633067019,67.29213016499205"
            stroke="black" id="e14_arc2" style="fill: none; stroke-width: 2px;" />
        <path d="M296.28002873493654,222.31747296849326c19.399533020538342,4.243647848242745,3.6374124413508753,70.32330719945102,39.40530144796833,75.17319045458575"
            stroke="black" id="e19_arc3" style="fill: none; stroke-width: 2px; stroke-dasharray: 4px, 2px;" />
        <path d="M422.983228775327,110.16392269350652c41.83024307553558,0,40.01153685486008,0,41.83024307553558,0" stroke="black"
            id="e20_arc3" style="fill: none; stroke-width: 2px;" />
        <path d="M423.5894641822189,110.77015810039833c12.124708137836365,0,30.918005751482724,13.943414358511845,41.22400766864371,12.730943544728248"
            stroke="black" id="e21_arc3" style="fill: none; stroke-width: 2px;" />
        <path d="M424.19569958911063,111.37639350729017c10.91223732405274,6.668589475809981,31.524241158374707,26.068122496348252,41.830243075535634,26.674357903240065"
            stroke="black" id="e22_arc3" style="fill: none; stroke-width: 2px;" />
        <path d="M421.7707579615434,109.55768728661468c9.093531103377245,13.943414358511902,26.674357903240093,40.01153685486011,43.648949296211015,40.01153685486014"
            stroke="black" id="e23_arc3" style="fill: none; stroke-width: 2px;" />
        <path d="M422.37699336843525,165.93758012755399q20.61200383432174,5.45611866202637,43.042713889319145,6.668589475809995"
            stroke="black" id="e25_arc2" style="fill: none; stroke-width: 2px;" />
        <path d="M421.77075796154327,165.93758012755396c26.674357903240207,14.5496497654037,29.705534937699213,18.793297613646416,46.073890923778436,18.793297613646445"
            stroke="black" id="e26_arc3" style="fill: none; stroke-width: 2px;" />
        <path d="M422.983228775327,215.6488834926832c44.8614201099947,2.424941627567307,42.43647848242745,1.8187062206754376,48.49883255134563,3.6374124413508753"
            stroke="black" id="e27_arc3" style="fill: none; stroke-width: 2px;" />
        <path d="M424.8019349960025,215.6488834926832c12.124708137836365,3.637412441350932,31.524241158374593,15.762120579187354,40.617772261751895,17.58082679986279"
            stroke="black" id="e28_arc3" style="fill: none; stroke-width: 2px;" />
        <path d="M422.983228775327,215.6488834926832c12.730943544728234,6.668589475810052,26.674357903240093,29.70553493769924,42.43647848242739,30.311770344590997"
            stroke="black" id="e29_arc3" style="fill: none; stroke-width: 2px;" />
    </g>
    <g id="root">
        <rect class="parent" x="222" y="104.425" stroke="black" id="e2_rectangle" width="117" height="19" fill="black" ry="0"
            transform="matrix(1 0 0 1 -43.0425 0)" rx="0" />
        <rect x="222" y="131.669" stroke="black" id="e1_rectangle" width="117" height="19" fill="black" ry="0"
            transform="matrix(1 0 0 1 -43.0425 0)" rx="0" />
        <rect class="parent" x="222" y="104.425" stroke="black" id="e14_rectangle" width="117" height="19" fill="black" ry="0"
            transform="matrix(1 0 0 1 -43.0425 53.9547)" rx="0" />
        <rect x="222" y="131.669" stroke="black" id="e15_rectangle" width="117" height="19" fill="black" ry="0"
            transform="matrix(1 0 0 1 -43.0425 53.9547)" rx="0" />
        <rect class="parent" x="222" y="104.425" stroke="black" id="e16_rectangle" width="117" height="19" fill="black" ry="0"
            transform="matrix(1 0 0 1 -43.0425 108.516)" rx="0" />
        <rect x="222" y="131.669" stroke="black" id="e17_rectangle" width="117" height="19" fill="black" ry="0"
            transform="matrix(1 0 0 1 -43.0425 108.516)" rx="0" />
    </g>
    <g id="child1">
        <rect class="parent" x="222" y="104.425" stroke="black" id="e18_rectangle" width="117" height="19" fill="black" ry="0"
            transform="matrix(0.692026 0 0 0.692026 188.356 32.7181)" rx="0" />
        <rect x="222" y="131.669" stroke="black" id="e19_rectangle" width="117" height="19" fill="black" ry="0"
            transform="matrix(0.692026 0 0 0.692026 188.356 32.7181)" rx="0" />
        <rect x="222" y="104.425" stroke="black" id="e20_rectangle" width="117" height="19" fill="black" ry="0"
            transform="matrix(0.692026 0 0 0.692026 188.356 70.0561)" rx="0" />
        <rect class="parent" x="222" y="131.669" stroke="black" id="e21_rectangle" width="117" height="19" fill="black" ry="0"
            transform="matrix(0.692026 0 0 0.692026 188.356 70.0561)" rx="0" />
    </g>
    <g id="child2">
        <rect x="222" y="104.425" stroke="black" id="e22_rectangle" width="117" height="19" fill="black" ry="0"
            transform="matrix(0.692026 0 0 0.692026 188.963 117.591)" rx="0" />
        <rect class="parent" x="222" y="131.669" stroke="black" id="e23_rectangle" width="117" height="19" fill="black" ry="0"
            transform="matrix(0.692026 0 0 0.692026 188.963 117.591)" rx="0" />
        <rect x="222" y="104.425" stroke="black" id="e24_rectangle" width="117" height="19" fill="black" ry="0"
            transform="matrix(0.692026 0 0 0.692026 188.963 154.929)" rx="0" />
    </g>
        <g id="subchild1">
        <rect x="222" y="104.425" stroke="black" id="e25_rectangle" width="117" height="19" fill="black" ry="0"
            rx="0" transform="matrix(0.503266 0 0 0.503266 353.491 52.5944)" />
        <rect x="222" y="131.669" stroke="black" id="e26_rectangle" width="117" height="19" fill="black" ry="0"
            rx="0" transform="matrix(0.503266 0 0 0.503266 353.491 52.5944)" />
        <rect x="222" y="104.425" stroke="black" id="e27_rectangle" width="117" height="19" fill="black" ry="0"
            transform="matrix(0.503266 0 0 0.503266 353.491 79.7479)" rx="0" />
        <rect x="191.885" y="88.7652" stroke="black" id="e28_rectangle" width="117" height="19" fill="black"
            ry="0" transform="matrix(0.503266 0 0 0.503266 368.647 101.093)" rx="0" />
    </g>
    <g id="subchild2">
        <rect x="191.885" y="130.464" stroke="black" id="e29_rectangle" width="117" height="19" fill="black" ry="0"
            transform="matrix(0.503266 0 0 0.503266 368.647 101.093)" rx="0" />
        <rect x="191.885" y="103.22" stroke="black" id="e30_rectangle" width="117" height="19" fill="black"
            ry="0" transform="matrix(0.503266 0 0 0.503266 368.647 128.246)" rx="0" />
    </g>
    <g id="subchild3">
        <rect x="222" y="104.425" stroke="black" id="e31_rectangle" width="117" height="19" fill="black" ry="0"
            transform="matrix(0.503266 0 0 0.503266 353.491 161.716)" rx="0" />
        <rect x="222" y="131.669" stroke="black" id="e32_rectangle" width="117" height="19" fill="black" ry="0"
            transform="matrix(0.503266 0 0 0.503266 353.491 161.716)" rx="0" />
        <rect x="222" y="104.425" stroke="black" id="e33_rectangle" width="117" height="19" fill="black" ry="0"
            transform="matrix(0.503266 0 0 0.503266 353.491 188.869)" rx="0" />
    </g>
</svg>